<?xml version="1.0" encoding="utf-8"?>
<!-- Generator: Adobe Illustrator 25.0.1, SVG Export Plug-In . SVG Version: 6.00 Build 0)  -->
<svg version="1.1" id="Layer_1" xmlns="http://www.w3.org/2000/svg" xmlns:xlink="http://www.w3.org/1999/xlink" x="0px"
	y="0px" viewBox="0 0 1060 481" style="enable-background:new 0 0 1060 481;" xml:space="preserve">
	<style type="text/css">
		.st0 {
			fill: #DB283E;
		}

		.st1 {
			opacity: 0.56;
			fill-rule: evenodd;
			clip-rule: evenodd;
			fill: #EA4965;
			enable-background: new;
		}

		.st2 {
			fill: #FAF1D2;
		}

		.st3 {
			fill: none;
			stroke: #9B0D2F;
			stroke-width: 4;
			stroke-linecap: round;
			stroke-linejoin: round;
			stroke-miterlimit: 10;
		}

		.st4 {
			fill-rule: evenodd;
			clip-rule: evenodd;
			fill: #CECECE;
		}

		.st5 {
			fill-rule: evenodd;
			clip-rule: evenodd;
			fill: #FFFCFF;
		}

		.st6 {
			clip-path: url(#SVGID_2_);
		}

		.st7 {
			clip-path: url(#SVGID_4_);
		}

		.st8 {
			clip-path: url(#SVGID_8_);
		}

		.st9 {
			fill: none;
			stroke: #3D3D3D;
			stroke-width: 4;
			stroke-linejoin: round;
			stroke-miterlimit: 10;
		}

		.st10 {
			fill: none;
			stroke: #3D3D3D;
			stroke-width: 2;
			stroke-linejoin: round;
			stroke-miterlimit: 10;
		}

		.st11 {
			fill: none;
			stroke: #3D3D3D;
			stroke-width: 5;
			stroke-linejoin: round;
			stroke-miterlimit: 10;
		}

		.st12 {
			fill: none;
			stroke: #3D3D3D;
			stroke-width: 3;
			stroke-linejoin: round;
			stroke-miterlimit: 10;
		}

		.st13 {
			fill: none;
			stroke: #3D3D3D;
			stroke-width: 7;
			stroke-linejoin: round;
			stroke-miterlimit: 10;
		}

		.st14 {
			fill-rule: evenodd;
			clip-rule: evenodd;
			fill: #8DB64E;
		}

		.st15 {
			fill: none;
			stroke: #A5D647;
			stroke-miterlimit: 10;
		}

		.st16 {
			fill: #FFFCFF;
		}

		.st17 {
			clip-path: url(#SVGID_10_);
		}

		.st18 {
			clip-path: url(#SVGID_12_);
		}

		.st19 {
			clip-path: url(#SVGID_16_);
		}

		.st20 {
			fill: #FFFFFF;
		}

		.st21 {
			font-family: 'MarkerFelt-Wide';
		}

		.st22 {
			font-size: 54.2918px;
		}
	</style>
	<g id="XMLID_537_">
		<g id="XMLID_539_">
			<path id="XMLID_540_" class="st0" d="M438.3,351c0-6.5,5.3-11.7,11.7-11.7v-6.7c-6.5,0-11.7-5.3-11.7-11.7
			c0-6.5,5.3-11.7,11.7-11.7v-6.7c-6.5,0-11.7-5.3-11.7-11.7c0-6.5,5.3-11.7,11.7-11.7v-6.7c-6.5,0-11.7-5.3-11.7-11.7
			c0-6.5,5.3-11.7,11.7-11.7v-6.7c-6.5,0-11.7-5.3-11.7-11.7c0-6.5,5.3-11.7,11.7-11.7v-6.7c-6.5,0-11.7-5.3-11.7-11.7
			c0-6.5,5.3-11.7,11.7-11.7V182c-6.5,0-11.7-5.3-11.7-11.7c0-6.5,5.3-11.7,11.7-11.7v-6.7c-6.5,0-11.7-5.3-11.7-11.7
			c0-6.5,5.3-11.7,11.7-11.7v-6.7c-6.5,0-11.7-5.3-11.7-11.7c0-6.5,5.3-11.7,11.7-11.7v-6.7c-6.5,0-11.7-5.3-11.7-11.7
			c0-6.5,5.3-11.7,11.7-11.7V54.9c-25.9,0-46.9-21-46.9-46.9H54.9c0,25.9-21,46.9-46.9,46.9v13.4c6.5,0,11.7,5.3,11.7,11.7
			c0,6.5-5.3,11.7-11.7,11.7v6.7c6.5,0,11.7,5.3,11.7,11.7c0,6.5-5.3,11.7-11.7,11.7v6.7c6.5,0,11.7,5.3,11.7,11.7
			c0,6.5-5.3,11.7-11.7,11.7v6.7c6.5,0,11.7,5.3,11.7,11.7c0,6.5-5.3,11.7-11.7,11.7v6.7c6.5,0,11.7,5.3,11.7,11.7
			c0,6.5-5.3,11.7-11.7,11.7v6.7c6.5,0,11.7,5.3,11.7,11.7c0,6.5-5.3,11.7-11.7,11.7v6.7c6.5,0,11.7,5.3,11.7,11.7
			c0,6.5-5.3,11.7-11.7,11.7v6.7c6.5,0,11.7,5.3,11.7,11.7c0,6.5-5.3,11.7-11.7,11.7v6.7c6.5,0,11.7,5.3,11.7,11.7
			c0,6.5-5.3,11.7-11.7,11.7v6.7c6.5,0,11.7,5.3,11.7,11.7c0,6.5-5.3,11.7-11.7,11.7v13.4c25.9,0,46.9,21,46.9,46.9h348.2
			c0-25.9,21-46.9,46.9-46.9v-13.4C443.6,362.7,438.3,357.5,438.3,351z" />
		</g>
	</g>
	<path id="XMLID_519_" class="st1" d="M225.9,334.4c-63.7,0-115.4-51.8-115.4-115.4s51.8-115.4,115.4-115.4S341.3,155.4,341.3,219
	S289.5,334.4,225.9,334.4z M323.2,234.7c-3.4-1.1-30.5-9.2-61.4-4.2c12.9,35.4,18.1,64.3,19.2,70.3
	C303.1,285.9,318.8,262.2,323.2,234.7z M264.4,309.9c-1.5-8.7-7.2-38.8-21-74.8c-0.2,0.1-0.4,0.1-0.7,0.2
	c-55.6,19.4-75.6,58-77.4,61.6c16.7,13,37.7,20.8,60.5,20.8C239.5,317.7,252.6,314.9,264.4,309.9z M152.6,285
	c2.2-3.8,29.3-48.6,80.2-65.1c1.3-0.4,2.6-0.8,3.9-1.2c-2.5-5.6-5.2-11.2-8-16.7c-49.2,14.7-97,14.1-101.3,14c0,1-0.1,2-0.1,3
	C127.3,244.4,136.9,267.5,152.6,285z M129.4,198.9c4.4,0.1,45,0.2,91.2-12c-16.3-29-34-53.5-36.6-57
	C156.4,142.9,135.7,168.3,129.4,198.9z M202.8,123.2c2.7,3.6,20.6,28,36.8,57.7c35.1-13.1,49.9-33.1,51.7-35.6
	c-17.4-15.4-40.3-24.8-65.4-24.8C217.9,120.5,210.2,121.4,202.8,123.2z M302.2,156.7c-2.1,2.8-18.6,24-55.1,38.9
	c2.3,4.7,4.5,9.5,6.5,14.3c0.7,1.7,1.4,3.4,2.1,5.1c32.8-4.1,65.4,2.5,68.7,3.2C324.3,194.9,315.9,173.5,302.2,156.7z" />
	<g id="XMLID_514_">
		<g id="XMLID_516_">
			<path id="XMLID_517_" class="st2" d="M703.3,351c0-6.5,5.3-11.7,11.7-11.7v-6.7c-6.5,0-11.7-5.3-11.7-11.7
			c0-6.5,5.3-11.7,11.7-11.7v-6.7c-6.5,0-11.7-5.3-11.7-11.7c0-6.5,5.3-11.7,11.7-11.7v-6.7c-6.5,0-11.7-5.3-11.7-11.7
			c0-6.5,5.3-11.7,11.7-11.7v-6.7c-6.5,0-11.7-5.3-11.7-11.7c0-6.5,5.3-11.7,11.7-11.7v-6.7c-6.5,0-11.7-5.3-11.7-11.7
			c0-6.5,5.3-11.7,11.7-11.7V182c-6.5,0-11.7-5.3-11.7-11.7c0-6.5,5.3-11.7,11.7-11.7v-6.7c-6.5,0-11.7-5.3-11.7-11.7
			c0-6.5,5.3-11.7,11.7-11.7v-6.7c-6.5,0-11.7-5.3-11.7-11.7c0-6.5,5.3-11.7,11.7-11.7v-6.7c-6.5,0-11.7-5.3-11.7-11.7
			c0-6.5,5.3-11.7,11.7-11.7V54.9c-25.9,0-46.9-21-46.9-46.9H496.9c0,25.9-21,46.9-46.9,46.9v13.4c6.5,0,11.7,5.3,11.7,11.7
			c0,6.5-5.3,11.7-11.7,11.7v6.7c6.5,0,11.7,5.3,11.7,11.7c0,6.5-5.3,11.7-11.7,11.7v6.7c6.5,0,11.7,5.3,11.7,11.7
			c0,6.5-5.3,11.7-11.7,11.7v6.7c6.5,0,11.7,5.3,11.7,11.7c0,6.5-5.3,11.7-11.7,11.7v6.7c6.5,0,11.7,5.3,11.7,11.7
			c0,6.5-5.3,11.7-11.7,11.7v6.7c6.5,0,11.7,5.3,11.7,11.7c0,6.5-5.3,11.7-11.7,11.7v6.7c6.5,0,11.7,5.3,11.7,11.7
			c0,6.5-5.3,11.7-11.7,11.7v6.7c6.5,0,11.7,5.3,11.7,11.7c0,6.5-5.3,11.7-11.7,11.7v6.7c6.5,0,11.7,5.3,11.7,11.7
			c0,6.5-5.3,11.7-11.7,11.7v6.7c6.5,0,11.7,5.3,11.7,11.7c0,6.5-5.3,11.7-11.7,11.7v13.4c25.9,0,46.9,21,46.9,46.9h171.2
			c0-25.9,21-46.9,46.9-46.9v-13.4C708.6,362.7,703.3,357.5,703.3,351z" />
		</g>
	</g>
	<path id="XMLID_511_" class="st3" d="M438.3,351c0-6.5,5.3-11.7,11.7-11.7v-6.7c-6.5,0-11.7-5.3-11.7-11.7c0-6.5,5.3-11.7,11.7-11.7
	v-6.7c-6.5,0-11.7-5.3-11.7-11.7c0-6.5,5.3-11.7,11.7-11.7v-6.7c-6.5,0-11.7-5.3-11.7-11.7c0-6.5,5.3-11.7,11.7-11.7v-6.7
	c-6.5,0-11.7-5.3-11.7-11.7c0-6.5,5.3-11.7,11.7-11.7v-6.7c-6.5,0-11.7-5.3-11.7-11.7c0-6.5,5.3-11.7,11.7-11.7V182
	c-6.5,0-11.7-5.3-11.7-11.7c0-6.5,5.3-11.7,11.7-11.7v-6.7c-6.5,0-11.7-5.3-11.7-11.7c0-6.5,5.3-11.7,11.7-11.7v-6.7
	c-6.5,0-11.7-5.3-11.7-11.7c0-6.5,5.3-11.7,11.7-11.7v-6.7c-6.5,0-11.7-5.3-11.7-11.7c0-6.5,5.3-11.7,11.7-11.7V54.9
	c-25.9,0-46.9-21-46.9-46.9H54.9c0,25.9-21,46.9-46.9,46.9v13.4c6.5,0,11.7,5.3,11.7,11.7c0,6.5-5.3,11.7-11.7,11.7v6.7
	c6.5,0,11.7,5.3,11.7,11.7c0,6.5-5.3,11.7-11.7,11.7v6.7c6.5,0,11.7,5.3,11.7,11.7c0,6.5-5.3,11.7-11.7,11.7v6.7
	c6.5,0,11.7,5.3,11.7,11.7c0,6.5-5.3,11.7-11.7,11.7v6.7c6.5,0,11.7,5.3,11.7,11.7c0,6.5-5.3,11.7-11.7,11.7v6.7
	c6.5,0,11.7,5.3,11.7,11.7c0,6.5-5.3,11.7-11.7,11.7v6.7c6.5,0,11.7,5.3,11.7,11.7c0,6.5-5.3,11.7-11.7,11.7v6.7
	c6.5,0,11.7,5.3,11.7,11.7c0,6.5-5.3,11.7-11.7,11.7v6.7c6.5,0,11.7,5.3,11.7,11.7c0,6.5-5.3,11.7-11.7,11.7v6.7
	c6.5,0,11.7,5.3,11.7,11.7c0,6.5-5.3,11.7-11.7,11.7v13.4c25.9,0,46.9,21,46.9,46.9h348.2c0-25.9,21-46.9,46.9-46.9v-13.4
	C443.6,362.7,438.3,357.5,438.3,351z" />
	<path id="XMLID_510_" class="st3" d="M703.3,351c0-6.5,5.3-11.7,11.7-11.7v-6.7c-6.5,0-11.7-5.3-11.7-11.7c0-6.5,5.3-11.7,11.7-11.7
	v-6.7c-6.5,0-11.7-5.3-11.7-11.7c0-6.5,5.3-11.7,11.7-11.7v-6.7c-6.5,0-11.7-5.3-11.7-11.7c0-6.5,5.3-11.7,11.7-11.7v-6.7
	c-6.5,0-11.7-5.3-11.7-11.7c0-6.5,5.3-11.7,11.7-11.7v-6.7c-6.5,0-11.7-5.3-11.7-11.7c0-6.5,5.3-11.7,11.7-11.7V182
	c-6.5,0-11.7-5.3-11.7-11.7c0-6.5,5.3-11.7,11.7-11.7v-6.7c-6.5,0-11.7-5.3-11.7-11.7c0-6.5,5.3-11.7,11.7-11.7v-6.7
	c-6.5,0-11.7-5.3-11.7-11.7c0-6.5,5.3-11.7,11.7-11.7v-6.7c-6.5,0-11.7-5.3-11.7-11.7c0-6.5,5.3-11.7,11.7-11.7V54.9
	c-25.9,0-46.9-21-46.9-46.9H496.9c0,25.9-21,46.9-46.9,46.9v13.4c6.5,0,11.7,5.3,11.7,11.7c0,6.5-5.3,11.7-11.7,11.7v6.7
	c6.5,0,11.7,5.3,11.7,11.7c0,6.5-5.3,11.7-11.7,11.7v6.7c6.5,0,11.7,5.3,11.7,11.7c0,6.5-5.3,11.7-11.7,11.7v6.7
	c6.5,0,11.7,5.3,11.7,11.7c0,6.5-5.3,11.7-11.7,11.7v6.7c6.5,0,11.7,5.3,11.7,11.7c0,6.5-5.3,11.7-11.7,11.7v6.7
	c6.5,0,11.7,5.3,11.7,11.7c0,6.5-5.3,11.7-11.7,11.7v6.7c6.5,0,11.7,5.3,11.7,11.7c0,6.5-5.3,11.7-11.7,11.7v6.7
	c6.5,0,11.7,5.3,11.7,11.7c0,6.5-5.3,11.7-11.7,11.7v6.7c6.5,0,11.7,5.3,11.7,11.7c0,6.5-5.3,11.7-11.7,11.7v6.7
	c6.5,0,11.7,5.3,11.7,11.7c0,6.5-5.3,11.7-11.7,11.7v13.4c25.9,0,46.9,21,46.9,46.9h171.2c0-25.9,21-46.9,46.9-46.9v-13.4
	C708.6,362.7,703.3,357.5,703.3,351z" />
	<g id="XMLID_479_">
		<g id="XMLID_481_">
			<path id="XMLID_483_" class="st4" d="M358.6,305c-21.9-4.2-44-7.3-66.2-9.4c-1.3,13.9-2.6,27.9-3.9,41.8
			c20.8,1.9,41.6,4.9,62.2,8.8c-5.6-8.2-11.5-16.3-17.6-24.4C341.4,316,349.9,310.4,358.6,305z" />
			<path id="XMLID_482_" class="st4" d="M122.6,321.8c-6.1,8-12,16.2-17.6,24.4c20.6-3.9,41.4-6.9,62.2-8.8
			c-1.3-13.9-2.6-27.9-3.9-41.8c-22.2,2.1-44.2,5.2-66.2,9.4C105.8,310.4,114.3,316,122.6,321.8z" />
		</g>
	</g>
	<g id="XMLID_476_">
		<path id="XMLID_478_" class="st5" d="M320.8,331.2c-61.4-11.7-124.5-11.7-185.9,0c-2.6-13.7-5.2-27.5-7.9-41.2
		c66.6-12.7,135-12.7,201.7,0C326.1,303.7,323.5,317.4,320.8,331.2z" />
	</g>
	<g id="XMLID_418_">
		<path id="XMLID_15_" d="M151.2,315.5c-0.1-0.5-0.2-1-0.3-1.5c0.4-0.1,0.8-0.2,1.2-0.2c-0.6-3.1-1.2-6.3-1.8-9.4
		c-0.4,0.1-0.8,0.2-1.3,0.2c-0.1-0.5-0.2-1-0.3-1.5c1.4-0.3,2.9-0.5,4.3-0.8c0.1,0.5,0.2,1,0.3,1.5c-0.4,0.1-0.8,0.2-1.3,0.2
		c0.6,3.1,1.2,6.3,1.7,9.4c0.4-0.1,0.8-0.2,1.2-0.2c0.1,0.5,0.2,1,0.3,1.5C153.9,315,152.6,315.3,151.2,315.5z" />
		<path id="XMLID_13_" d="M171.1,312.2c-0.1-0.5-0.1-1-0.2-1.5c0.3,0,0.5-0.1,0.8-0.1s0.4-0.2,0.3-0.4c-0.5-3.6-1-7.1-1.5-10.7
		c0.6-0.1,1.1-0.2,1.7-0.2c2.3,2.4,4.5,4.8,6.8,7.3c0.4,0.5,0.8,1.1,1.3,1.6l0,0c-0.2-0.7-0.3-1.2-0.3-1.7c-0.3-2.3-0.5-4.6-0.8-6.8
		c-0.1-0.8,0.2-1.2,1.1-1.3c0.6-0.1,1.2-0.1,1.9-0.2c0.1,0.5,0.1,1,0.2,1.5c-0.3,0-0.5,0.1-0.8,0.1s-0.4,0.2-0.4,0.4
		c0.4,3.6,0.8,7.1,1.2,10.7c-0.5,0.1-1.1,0.1-1.6,0.2c-2.2-2.4-4.4-4.9-6.7-7.3c-0.4-0.5-0.9-1-1.3-1.6l0,0c0.2,0.7,0.3,1.2,0.3,1.7
		c0.3,2.3,0.6,4.6,0.9,6.8c0.1,0.8-0.2,1.2-1,1.3C172.3,312.1,171.7,312.1,171.1,312.2z" />
		<path id="XMLID_10_"
			d="M203.7,309c-1.5-3.5-3.1-7-4.7-10.5c-0.1-0.3-0.6-0.5-0.6-0.5h-0.3c0,0-0.1-0.9-0.1-1.4c0.3,0,0.7,0,1-0.1
		c0.9-0.1,1.3,0.1,1.6,0.9c1.1,2.5,2.2,5.1,3.3,7.6c0.2,0.6,0.4,1.1,0.6,1.7l0,0c0.1-0.7,0.3-1.3,0.4-1.8c0.8-2.7,1.6-5.3,2.4-8
		c0.3-0.9,1.5-0.9,1.5-0.9h1l0.1,2h-0.3c0,0-0.5-0.6-0.6-0.3c-1.2,3.6-2.4,7.3-3.5,10.9C204.9,308.9,204.3,309,203.7,309z" />
		<path id="XMLID_8_" d="M226,309c0,0,0-2.2,0-2h1v-10h-1v-2h4v2h-1v10h1v2H226z" />
		<path id="XMLID_6_" d="M250.4,308.9c0.2-3.7,0.4-7.4,0.6-11.1c-0.9,0-1.8-0.1-2.6-0.1c-0.3,0-0.4,0.1-0.4,0.4c0,0.3,0,0.5,0,0.8
		c-0.5,0-1.1-0.1-1.6-0.1c0-0.6,0-1.1,0.1-1.7c0-0.8,0.3-1.1,1.2-1c3,0.1,6,0.3,9,0.5c0.8,0.1,1.1,0.3,1,1.2c0,0.6-0.1,1.1-0.1,1.7
		c-0.5,0-1.1-0.1-1.6-0.1c0-0.3,0-0.5,0.1-0.8c0-0.3-0.1-0.4-0.4-0.4c-0.9-0.1-1.8-0.1-2.6-0.2c-0.2,3.7-0.4,7.4-0.7,11.1
		C251.6,308.9,251,308.9,250.4,308.9z" />
		<path id="XMLID_4_" d="M274.3,299.7c-0.4,0-0.8-0.1-1.2-0.1c0.1-0.5,0.1-1,0.2-1.5c2.6,0.3,5.1,0.6,7.7,0.9c0.8,0.1,1.1,0.5,1,1.3
		c-0.1,0.5-0.1,1.1-0.2,1.6c-0.6-0.1-1.1-0.1-1.7-0.2c0-0.3,0.1-0.5,0.1-0.8s-0.1-0.4-0.4-0.4c-1.2-0.2-2.5-0.3-3.7-0.4
		c-0.2,1.3-0.3,2.6-0.5,3.9c1.5,0.2,3,0.4,4.5,0.5c-0.1,0.5-0.1,1-0.2,1.5c-1.5-0.2-3-0.4-4.5-0.5c-0.1,1.2-0.3,2.4-0.4,3.7
		c0,0.3,0.1,0.4,0.4,0.4c1.2,0.1,2.5,0.3,3.7,0.5c0.3,0,0.4-0.1,0.4-0.3c0-0.3,0.1-0.5,0.1-0.8c0.6,0.1,1.1,0.1,1.7,0.2
		c-0.1,0.5-0.1,1.1-0.2,1.6c-0.1,0.8-0.5,1.1-1.3,1c-1.9-0.2-3.8-0.5-5.6-0.7c-0.8-0.1-1.1-0.5-1-1.3
		C273.6,306.3,273.9,303,274.3,299.7z" />
		<path id="XMLID_2_" d="M296.7,312.4c0.4-0.4,0.8-0.7,1.3-1.1c0.1,0.1,0.1,0.2,0.5,0.6c0.5,0.5,1.3,1.2,2.4,1.4
		c1.2,0.2,2.3-0.3,2.5-1.5c0.2-1.3-1.2-2.1-2.6-3.1c-0.5-0.4-0.9-0.7-1.3-1.1c-0.8-0.7-1.3-1.8-1.1-3c0.2-0.9,0.7-1.7,1.6-2.2
		c0.9-0.5,2-0.7,3.2-0.4c0.5,0.1,1,0.3,1.5,0.5s0.9,0.6,1.3,1c0.4,0.5,0.5,0.9,0.4,1.5c-0.1,0.3-0.1,0.7-0.2,1
		c-0.6-0.1-1.1-0.2-1.7-0.3c0-0.2,0.1-0.4,0.1-0.6c0.1-0.6-0.7-1.3-1.8-1.5c-1.4-0.2-2.4,0.3-2.6,1.3c-0.2,1.3,1.2,2,2.7,3
		c1.4,0.9,2.8,2.2,2.4,4.2c-0.2,1-0.7,1.8-1.6,2.3c-0.9,0.6-1.9,0.7-3.1,0.5c-1-0.2-1.9-0.7-2.5-1.1c-0.6-0.5-1-0.9-1.2-1.2
		C296.8,312.6,296.7,312.5,296.7,312.4z" />
	</g>
	<g id="XMLID_383_">
		<g id="XMLID_414_">
			<g>
				<defs>
					<path id="SVGID_1_" d="M582.1,143.4c29.6,0,53.6,24,53.6,53.5c0,29.6-24,53.5-53.6,53.5s-53.6-24-53.6-53.5
					C528.5,167.3,552.5,143.4,582.1,143.4L582.1,143.4z" />
				</defs>
				<use xlink:href="#SVGID_1_" style="overflow:visible;fill:#DB283E;" />
				<clipPath id="SVGID_2_">
					<use xlink:href="#SVGID_1_" style="overflow:visible;" />
				</clipPath>
				<g class="st6">
				</g>
				<use xlink:href="#SVGID_1_" style="overflow:visible;fill:none;stroke:#000000;stroke-miterlimit:10;" />
			</g>
		</g>
		<g id="XMLID_404_">
			<g>
				<defs>
					<path id="SVGID_3_"
						d="M579.6,252.2c-31.7,0-57.4-25.7-57.4-57.3s25.8-57.3,57.4-57.3c31.7,0,57.4,25.7,57.4,57.3
					S611.2,252.2,579.6,252.2L579.6,252.2z M628,202.8c-1.7-0.5-15.2-4.6-30.5-2.1c6.4,17.6,9,31.9,9.5,34.9
					C618,228.1,625.8,216.4,628,202.8L628,202.8z M598.7,240.1c-0.7-4.3-3.6-19.3-10.5-37.1c-0.1,0-0.2,0.1-0.3,0.1
					c-27.7,9.6-37.6,28.8-38.5,30.6c8.3,6.5,18.8,10.3,30.1,10.3C586.3,244,592.8,242.6,598.7,240.1L598.7,240.1z M543.1,227.7
					c1.1-1.9,14.6-24.2,39.9-32.3c0.6-0.2,1.3-0.4,1.9-0.6c-1.2-2.8-2.6-5.6-4-8.3c-24.5,7.3-48.3,7-50.4,7c0,0.5,0,1,0,1.5
					C530.5,207.6,535.3,219,543.1,227.7L543.1,227.7z M531.5,184.9c2.2,0,22.4,0.1,45.3-6c-8.1-14.4-16.9-26.6-18.2-28.3
					C545,157.1,534.7,169.7,531.5,184.9L531.5,184.9z M568.1,147.4c1.4,1.8,10.3,13.9,18.3,28.7c17.4-6.5,24.8-16.4,25.7-17.7
					c-8.7-7.7-20-12.3-32.5-12.3C575.6,146,571.7,146.5,568.1,147.4L568.1,147.4z M617.5,164c-1,1.4-9.3,11.9-27.4,19.3
					c1.1,2.3,2.2,4.7,3.3,7.1c0.4,0.8,0.7,1.7,1.1,2.5c16.3-2,32.5,1.2,34.1,1.6C628.5,183,624.3,172.3,617.5,164L617.5,164z" />
				</defs>
				<use xlink:href="#SVGID_3_" style="overflow:visible;fill:#DB283E;" />
				<clipPath id="SVGID_4_">
					<use xlink:href="#SVGID_3_" style="overflow:visible;" />
				</clipPath>
				<g class="st7">
				</g>
				<use xlink:href="#SVGID_3_" style="overflow:visible;fill:none;stroke:#000000;stroke-miterlimit:10;" />
			</g>
		</g>
		<g id="XMLID_384_">
			<g>
				<defs>
					<path id="SVGID_5_" d="M579.5,252.2v-0.3c-15.7,0-30-6.4-40.4-16.7c-10.3-10.3-16.7-24.6-16.7-40.3l0,0c0-15.7,6.4-30,16.7-40.3
					s24.6-16.7,40.4-16.7c15.7,0,30,6.4,40.4,16.7c10.3,10.3,16.7,24.6,16.7,40.3s-6.4,30-16.7,40.3c-10.4,10.4-24.7,16.7-40.4,16.7
					V252.2v0.3c32.7,0,59.1-27.2,57.6-60.2c-1.3-29.5-25.2-53.4-54.7-54.9c-33.1-1.7-60.7,24.7-60.7,57.5l0,0
					c0,31.8,25.9,57.6,57.7,57.6V252.2L579.5,252.2L579.5,252.2z M628,202.5L628,202.5c-1.2-0.4-9.5-2.9-20.3-2.9
					c-3.2,0-6.7,0.2-10.3,0.8l-0.3,0.1l0.1,0.3c6.4,17.6,9,31.9,9.5,34.9l0.1,0.4l0.4-0.3c11.1-7.5,18.9-19.3,21.3-33v-0.2
					L628,202.5L628,202.5h-0.8c-2.2,13.6-9.8,25.4-20.6,32.8l0.2,0.2h0.3c-0.5-3-3-17.4-9.3-35.2l-0.3,0.1v0.3
					c3.4-0.6,6.9-0.8,10-0.8c10.5,0,18.7,2.5,20,2.9v-0.3h0.2H628L628,202.5L628,202.5z M599.1,240.5h0.3
					c-0.7-4.3-3.6-19.3-10.5-37.2l-0.1-0.3l-0.3,0.1c-0.1,0-0.2,0.1-0.3,0.1c-27.8,9.7-37.7,28.9-38.6,30.7l-0.1,0.2l0.2,0.1
					c8.4,6.5,18.9,10.4,30.3,10.4c6.8,0,13.3-1.4,19.3-3.9l0.2-0.1v-0.2L599.1,240.5l-0.1-0.3c-5.9,2.5-12.3,3.9-19,3.9
					c-11.3,0-21.7-3.8-29.9-10.3l-0.2,0.2l0.3,0.1c0.9-1.8,10.7-20.8,38.3-30.4c0.1,0,0.2-0.1,0.3-0.1l-0.1-0.3l-0.3,0.1
					c6.9,17.8,9.7,32.8,10.4,37.1H599.1l-0.1-0.3L599.1,240.5L599.1,240.5L599.1,240.5z M543.1,227.7l0.3,0.1
					c1.1-1.9,14.5-24.1,39.7-32.2c0.6-0.2,1.3-0.4,1.9-0.6l0.3-0.1l-0.1-0.3c-1.2-2.8-2.6-5.6-4-8.3l-0.1-0.2l-0.2,0.1
					c-21.6,6.5-42.7,7-48.8,7.3h-1.6h0l0,0v1.5c-0.3,12.7,4.5,24.2,12.4,32.9l0.3,0.3l0.2-0.3L543.1,227.7l0.2-0.2
					c-7.8-8.6-12.8-32.6-12.8-32.6s0-1.5,0-1.4h1v1h0.6c0,0,27.2-1.3,48.9-7.8l-0.1-0.3l-0.3,0.1c1.4,2.7,2.7,5.5,4,8.3l0.3-0.1
					l-0.1-0.3c-0.7,0.2-1.3,0.4-1.9,0.6c-25.4,8.2-38.9,30.5-40,32.4L543.1,227.7l0.2-0.2L543.1,227.7L543.1,227.7L543.1,227.7z
					 M531.5,184.9v-0.4h0.8c4.5,0.7,23.4,0.3,44.6-5.3l0.4-0.1l-0.2-0.3c-8.1-14.4-16.9-26.6-18.2-28.4l-0.1-0.2l-0.2,0.1
					c-13.8,6.5-24.1,19.2-27.3,34.5l-0.1,0.7h0.4L531.5,184.9l0.3,0.1c3.2-15.1,13.4-27.7,27-34.1l-0.1-0.3l-0.2,0.2
					c1.3,1.8,10,13.9,18.2,28.3l0.3-0.1l-0.1-0.3c-21.1,5.6-39.9,6-44.4,5.8h-0.8L531.5,184.9l0.3,0.1L531.5,184.9L531.5,184.9
					L531.5,184.9z M568.1,147.4l-0.2,0.2c1.4,1.8,10.3,13.9,18.3,28.6l0.1,0.2l0.2-0.1c17.5-6.6,24.9-16.5,25.8-17.8l0.1-0.2
					l-0.2-0.2c-8.7-7.7-20.2-12.4-32.7-12.4c-4,0-7.9,0.5-11.6,1.4l-0.4,0.1l0.3,0.4L568.1,147.4l0.1,0.3c3.7-0.9,7.5-1.4,11.4-1.4
					c12.4,0,23.7,4.6,32.3,12.3l0.2-0.2l-0.2-0.2c-0.9,1.2-8.2,11.1-25.6,17.6l0.1,0.3l0.3-0.1c-8-14.8-17-26.9-18.3-28.7
					L568.1,147.4l0.1,0.3L568.1,147.4L568.1,147.4L568.1,147.4z M617.5,164l-0.2-0.2c-1,1.4-9.2,11.8-27.3,19.2l-0.3,0.1l0.1,0.3
					c1.1,2.3,2.2,4.7,3.2,7.1c0.4,0.8,0.7,1.7,1.1,2.5l0.1,0.5h0.2c3.8-0.8,7.6-1,11.3-1c11.8,0,21.6,2,22.8,2.2l0,0.1v-0.4
					c0.3-11.6-3.9-22.3-10.7-30.7l-0.2-0.3l-0.2,0.3L617.5,164l-0.2,0.2c6.8,8.3,10.9,18.8,11,30.3h0.3l0.1-0.3
					c-1.2-0.3-11-2.3-22.9-2.3c-3.6,0-7.5,0.2-11.3,0.7v0.3l0.3-0.1c-0.3-0.8-0.7-1.7-1.1-2.5c-1-2.4-2.1-4.8-3.3-7.1l-0.3,0.1
					l0.1,0.3c18.2-7.4,26.5-18,27.5-19.4L617.5,164l-0.2,0.2L617.5,164L617.5,164L617.5,164z" />
				</defs>
				<use xlink:href="#SVGID_5_" style="overflow:visible;fill:#DB283E;" />
				<clipPath id="SVGID_6_">
					<use xlink:href="#SVGID_5_" style="overflow:visible;" />
				</clipPath>
				<use xlink:href="#SVGID_5_" style="overflow:visible;fill:none;stroke:#000000;stroke-miterlimit:10;" />
			</g>
			<g>
				<defs>
					<path id="SVGID_7_" d="M579.5,252.2v-0.3c-15.7,0-30-6.4-40.4-16.7c-10.3-10.3-16.7-24.6-16.7-40.3l0,0c0-15.7,6.4-30,16.7-40.3
					s24.6-16.7,40.4-16.7c15.7,0,30,6.4,40.4,16.7c10.3,10.3,16.7,24.6,16.7,40.3s-6.4,30-16.7,40.3c-10.4,10.4-24.7,16.7-40.4,16.7
					V252.2v0.3c32.7,0,59.1-27.2,57.6-60.2c-1.3-29.5-25.2-53.4-54.7-54.9c-33.1-1.7-60.7,24.7-60.7,57.5l0,0
					c0,31.8,25.9,57.6,57.7,57.6V252.2L579.5,252.2L579.5,252.2z M628,202.5L628,202.5c-1.2-0.4-9.5-2.9-20.3-2.9
					c-3.2,0-6.7,0.2-10.3,0.8l-0.3,0.1l0.1,0.3c6.4,17.6,9,31.9,9.5,34.9l0.1,0.4l0.4-0.3c11.1-7.5,18.9-19.3,21.3-33v-0.2
					L628,202.5L628,202.5h-0.8c-2.2,13.6-9.8,25.4-20.6,32.8l0.2,0.2h0.3c-0.5-3-3-17.4-9.3-35.2l-0.3,0.1v0.3
					c3.4-0.6,6.9-0.8,10-0.8c10.5,0,18.7,2.5,20,2.9v-0.3h0.2H628L628,202.5L628,202.5z M599.1,240.5h0.3
					c-0.7-4.3-3.6-19.3-10.5-37.2l-0.1-0.3l-0.3,0.1c-0.1,0-0.2,0.1-0.3,0.1c-27.8,9.7-37.7,28.9-38.6,30.7l-0.1,0.2l0.2,0.1
					c8.4,6.5,18.9,10.4,30.3,10.4c6.8,0,13.3-1.4,19.3-3.9l0.2-0.1v-0.2L599.1,240.5l-0.1-0.3c-5.9,2.5-12.3,3.9-19,3.9
					c-11.3,0-21.7-3.8-29.9-10.3l-0.2,0.2l0.3,0.1c0.9-1.8,10.7-20.8,38.3-30.4c0.1,0,0.2-0.1,0.3-0.1l-0.1-0.3l-0.3,0.1
					c6.9,17.8,9.7,32.8,10.4,37.1H599.1l-0.1-0.3L599.1,240.5L599.1,240.5L599.1,240.5z M543.1,227.7l0.3,0.1
					c1.1-1.9,14.5-24.1,39.7-32.2c0.6-0.2,1.3-0.4,1.9-0.6l0.3-0.1l-0.1-0.3c-1.2-2.8-2.6-5.6-4-8.3l-0.1-0.2l-0.2,0.1
					c-21.6,6.5-42.7,7-48.8,7.3h-1.6h0l0,0v1.5c-0.3,12.7,4.5,24.2,12.4,32.9l0.3,0.3l0.2-0.3L543.1,227.7l0.2-0.2
					c-7.8-8.6-12.8-32.6-12.8-32.6s0-1.5,0-1.4h1v1h0.6c0,0,27.2-1.3,48.9-7.8l-0.1-0.3l-0.3,0.1c1.4,2.7,2.7,5.5,4,8.3l0.3-0.1
					l-0.1-0.3c-0.7,0.2-1.3,0.4-1.9,0.6c-25.4,8.2-38.9,30.5-40,32.4L543.1,227.7l0.2-0.2L543.1,227.7L543.1,227.7L543.1,227.7z
					 M531.5,184.9v-0.4h0.8c4.5,0.7,23.4,0.3,44.6-5.3l0.4-0.1l-0.2-0.3c-8.1-14.4-16.9-26.6-18.2-28.4l-0.1-0.2l-0.2,0.1
					c-13.8,6.5-24.1,19.2-27.3,34.5l-0.1,0.7h0.4L531.5,184.9l0.3,0.1c3.2-15.1,13.4-27.7,27-34.1l-0.1-0.3l-0.2,0.2
					c1.3,1.8,10,13.9,18.2,28.3l0.3-0.1l-0.1-0.3c-21.1,5.6-39.9,6-44.4,5.8h-0.8L531.5,184.9l0.3,0.1L531.5,184.9L531.5,184.9
					L531.5,184.9z M568.1,147.4l-0.2,0.2c1.4,1.8,10.3,13.9,18.3,28.6l0.1,0.2l0.2-0.1c17.5-6.6,24.9-16.5,25.8-17.8l0.1-0.2
					l-0.2-0.2c-8.7-7.7-20.2-12.4-32.7-12.4c-4,0-7.9,0.5-11.6,1.4l-0.4,0.1l0.3,0.4L568.1,147.4l0.1,0.3c3.7-0.9,7.5-1.4,11.4-1.4
					c12.4,0,23.7,4.6,32.3,12.3l0.2-0.2l-0.2-0.2c-0.9,1.2-8.2,11.1-25.6,17.6l0.1,0.3l0.3-0.1c-8-14.8-17-26.9-18.3-28.7
					L568.1,147.4l0.1,0.3L568.1,147.4L568.1,147.4L568.1,147.4z M617.5,164l-0.2-0.2c-1,1.4-9.2,11.8-27.3,19.2l-0.3,0.1l0.1,0.3
					c1.1,2.3,2.2,4.7,3.2,7.1c0.4,0.8,0.7,1.7,1.1,2.5l0.1,0.5h0.2c3.8-0.8,7.6-1,11.3-1c11.8,0,21.6,2,22.8,2.2l0,0.1v-0.4
					c0.3-11.6-3.9-22.3-10.7-30.7l-0.2-0.3l-0.2,0.3L617.5,164l-0.2,0.2c6.8,8.3,10.9,18.8,11,30.3h0.3l0.1-0.3
					c-1.2-0.3-11-2.3-22.9-2.3c-3.6,0-7.5,0.2-11.3,0.7v0.3l0.3-0.1c-0.3-0.8-0.7-1.7-1.1-2.5c-1-2.4-2.1-4.8-3.3-7.1l-0.3,0.1
					l0.1,0.3c18.2-7.4,26.5-18,27.5-19.4L617.5,164l-0.2,0.2L617.5,164L617.5,164L617.5,164z" />
				</defs>
				<use xlink:href="#SVGID_7_" style="overflow:visible;fill:#DB283E;" />
				<clipPath id="SVGID_8_">
					<use xlink:href="#SVGID_7_" style="overflow:visible;" />
				</clipPath>
				<g class="st8">
				</g>
				<use xlink:href="#SVGID_7_" style="overflow:visible;fill:none;stroke:#000000;stroke-miterlimit:10;" />
			</g>
		</g>
	</g>
	<g id="XMLID_349_">
		<g id="XMLID_381_">
			<line id="XMLID_382_" class="st9" x1="630" y1="311" x2="630" y2="338" />
		</g>
		<g id="XMLID_378_">
			<line id="XMLID_379_" class="st10" x1="637" y1="311" x2="637" y2="338" />
		</g>
		<g id="XMLID_376_">
			<line id="XMLID_377_" class="st10" x1="624" y1="311" x2="624" y2="338" />
		</g>
		<g id="XMLID_374_">
			<line id="XMLID_375_" class="st10" x1="619" y1="311" x2="619" y2="338" />
		</g>
		<g id="XMLID_372_">
			<line id="XMLID_373_" class="st11" x1="612.5" y1="311" x2="612.5" y2="338" />
		</g>
		<g id="XMLID_370_">
			<line id="XMLID_371_" class="st12" x1="605.5" y1="311" x2="605.5" y2="338" />
		</g>
		<g id="XMLID_368_">
			<line id="XMLID_369_" class="st10" x1="597" y1="311" x2="597" y2="338" />
		</g>
		<g id="XMLID_366_">
			<line id="XMLID_367_" class="st13" x1="589.5" y1="311" x2="589.5" y2="338" />
		</g>
		<g id="XMLID_364_">
			<line id="XMLID_365_" class="st12" x1="581.5" y1="311" x2="581.5" y2="338" />
		</g>
		<g id="XMLID_362_">
			<line id="XMLID_363_" class="st9" x1="573" y1="311" x2="573" y2="338" />
		</g>
		<g id="XMLID_360_">
			<line id="XMLID_361_" class="st10" x1="565" y1="311" x2="565" y2="338" />
		</g>
		<g id="XMLID_358_">
			<line id="XMLID_359_" class="st11" x1="557.5" y1="311" x2="557.5" y2="338" />
		</g>
		<g id="XMLID_356_">
			<line id="XMLID_357_" class="st12" x1="549.5" y1="311" x2="549.5" y2="338" />
		</g>
		<g id="XMLID_354_">
			<line id="XMLID_355_" class="st10" x1="542" y1="311" x2="542" y2="338" />
		</g>
		<g id="XMLID_352_">
			<line id="XMLID_353_" class="st12" x1="533.5" y1="311" x2="533.5" y2="338" />
		</g>
		<g id="XMLID_350_">
			<line id="XMLID_351_" class="st9" x1="526" y1="311" x2="526" y2="338" />
		</g>
	</g>
	<g id="XMLID_322_">
		<g id="XMLID_345_">

			<ellipse id="XMLID_347_" transform="matrix(0.1602 -0.9871 0.9871 0.1602 82.5391 308.213)" class="st14"
				cx="222.4" cy="105.6" rx="33.8" ry="33.8" />

			<ellipse id="XMLID_346_" transform="matrix(0.1602 -0.9871 0.9871 0.1602 82.5391 308.213)" class="st15"
				cx="222.4" cy="105.6" rx="33.8" ry="33.8" />
		</g>
	</g>
	<g id="XMLID_316_">
		<path id="XMLID_317_" class="st16" d="M228.4,93.9c0-3.8-2.8-6.6-7.1-6.6c-3.5,0-6.2,1.8-6.2,3.9V94h-5v-4.8c0-1.7,0.7-3.2,2-4.4
		c2.7-2.5,6.3-3.3,9.8-3.3c3.7,0,6.7,1.1,9.1,3.4c2.4,2.2,3.6,5.1,3.6,8.7c0,5.3-3.2,9.5-7.3,12.1c-5.7,3.7-13.3,6.8-13.2,12.2
		c0,0.8,0.5,1.1,1.4,1.1h14.4c0.7,0,1.3-0.6,1.3-1.3V115h5v5.3c0,2-1.7,3.7-3.7,3.7h-20.8c-3.1,0-3.9-1.2-3.9-4.8
		C207.8,104,228.4,105.1,228.4,93.9z" />
	</g>
	<g id="XMLID_295_">
		<path id="XMLID_314_" class="st0" d="M507,86v-3h2v-8h-2v-3h6v3h-1v8h1v3H507z" />
		<path id="XMLID_307_" class="st0" d="M531,86v-3h0.5c0.3,0,0.4-0.1,0.5-0.4V71h3.1l4,6.8c0.3,0.5,0.8,1.4,1,1.8l0.2,0.3l0,0
		c-0.1-0.8-0.2-1.5-0.3-2.1v-4.7c0.1-1,0.5-1.5,1.6-1.1h3.4v3h-0.9c-0.3-0.4-0.4-0.3-0.1,0v11h-3.5l-4-6.1c-0.3-0.5-0.8-1.3-1-1.8
		l-0.2-0.3l0,0c0.1,0.8,0.2,1.5,0.7,2.1v4.7c-0.5,1-0.9,1.5-2,2.4h-3V86z" />
		<path id="XMLID_302_" class="st0" d="M567.5,86l-3.9-10.6c-0.1-0.3-0.2-0.4-0.5-0.4H562v-3h2.6c1,0,1.4,0.3,1.7,1.2l2.1,6.7
		c0.2,0.5,0.4,1.4,0.5,1.9l0.1,0.4l0,0c0.2-0.9,0.3-1.7,0.5-2.3l2.1-6.7c0.3-0.9,0.7-1.2,1.7-1.2h2.6v3h-0.5c-0.3,0-0.4,0.1-0.5,0.4
		L571.1,86L567.5,86L567.5,86z" />
		<path id="XMLID_300_" class="st0" d="M593,86v-3h1v-8h-1v-3h6v3h-2v8h2v3H593z" />
		<path id="XMLID_298_" class="st0" d="M621,86V75h-1.8c-0.3-0.3-0.4-0.2-0.2,0.1V76h-3v-2.6c0-0.8,0.6-1.4,1.4-1.4h10.2
		c0.8,0,1.4,0.6,1.4,1.4V76h-3v-0.9c-0.4-0.3-0.8-0.1-0.8-0.1H624v11H621z" />
		<path id="XMLID_296_" class="st0" d="M647,75h-2v-3h9.4c1,0,1.6,0.4,1.6,1.5V76h-3v-0.8c-0.2-0.3-0.6-0.2-0.6-0.2H651v3h4v2h-4v2.7
		c-0.5,0.3-0.1,0.3-0.1,0.3h2c0,0,0.4,0,0.1-0.3V82h3v2.6c0,1-0.4,1.4-1.4,1.4h-6.2c-0.9,0-1.4-0.4-1.4-1.4V75z" />
	</g>
	<g>
		<path d="M506,372v-1.3l1.7-1.2c3-2.8,4.3-4.4,4.4-6.1c0-1.2-0.6-2.3-2.3-2.3c-1.1,0-1.9,0.5-2.5,1l-0.5-1.1c0.8-0.7,2-1.2,3.3-1.2
		c2.5,0,3.6,1.7,3.6,3.4c0,2.2-1.6,3.9-4,6.3l-0.9,1.5l0,0h5.2v1h-7.5H506z" />
		<path d="M537.1,361h-4.5l-0.4,3.4c0.3,0,0.5-0.1,1-0.1c0.9,0,1.8,0.2,2.5,0.6c0.9,0.5,1.7,1.5,1.7,3c0,2.3-1.8,4-4.4,4
		c-1.3,0-2.4-0.4-2.9-0.7l0.4-1.2c0.5,0.3,1.4,0.6,2.5,0.6c1.5,0,2.8-1,2.8-2.5s-1-2.6-3.4-2.6c-0.7,0-1.2,0.1-1.6,0.1l0.8-5.6h5.4
		L537.1,361L537.1,361z" />
		<path d="M557,361h0.2l-2.1,1.6l-0.3-1.2l2.6-1.4h1.6v12h-2V361z" />
		<path
			d="M585.1,365.8c0,4-1.5,6.2-4.1,6.2c-2.3,0-3.8-2.1-3.9-6c0-3.9,1.7-6.1,4.1-6.1C583.7,359.8,585.1,362,585.1,365.8z
		 M578.8,365.9c0,3,0.9,4.8,2.4,4.8c1.6,0,2.4-1.9,2.4-4.9c0-2.9-0.7-4.8-2.4-4.8C579.8,361.1,578.8,362.8,578.8,365.9z" />
		<path d="M604,361h0.4l-2.1,1.6l-0.3-1.2l2.6-1.4h1.4v12h-2V361z" />
		<path d="M631,361.7c-0.3,0-0.7,0-1.2,0.1c-2.5,0.4-3.8,2.2-4.1,4.2h0.1c0.6-0.7,1.5-1.4,2.8-1.4c2.1,0,3.5,1.5,3.5,3.8
		c0,2.1-1.5,4.1-3.9,4.1c-2.5,0-4.1-1.9-4.1-5c0-2.3,0.8-4.1,2-5.3c1-1,2.3-1.5,3.7-1.7c0.5-0.1,0.9-0.1,1.2-0.1V361.7z
		 M630.8,367.9c0-1.7-1-2.7-2.4-2.7c-1,0-1.8,0.6-2.3,1.4c-0.1,0.2-0.2,0.4-0.2,0.7c0,1.9,0.9,3.3,2.6,3.3
		C629.9,370.7,630.8,369.6,630.8,367.9z" />
		<path d="M650.6,368l-1.4,4h-1.4l4.1-12h1.9l4.1,12h-1.5l-1.4-4H650.6z M654.7,367l-1.2-3.5c-0.3-0.8-0.4-1.5-0.6-2.2l0,0
		c-0.2,0.7-0.4,1.5-0.6,2.2l-1.2,3.5H654.7z" />
	</g>
	<g id="XMLID_289_">
		<g id="XMLID_291_">
			<path id="XMLID_292_" class="st2" d="M976.7,396.4c1.1-6.4,7.2-10.6,13.6-9.5l1.2-6.6c-6.4-1.1-10.6-7.2-9.5-13.6
			c1.1-6.4,7.2-10.6,13.6-9.5l1.2-6.6c-6.4-1.1-10.6-7.2-9.5-13.6c1.1-6.4,7.2-10.6,13.6-9.5l1.2-6.6c-6.4-1.1-10.6-7.2-9.5-13.6
			c1.1-6.4,7.2-10.6,13.6-9.5l1.2-6.6c-6.4-1.1-10.6-7.2-9.5-13.6c1.1-6.4,7.2-10.6,13.6-9.5l1.2-6.6c-6.4-1.1-10.6-7.2-9.5-13.6
			c1.1-6.4,7.2-10.6,13.6-9.5l1.2-6.6c-6.4-1.1-10.6-7.2-9.5-13.6c1.1-6.4,7.2-10.6,13.6-9.5l1.2-6.6c-6.4-1.1-10.6-7.2-9.5-13.6
			c1.1-6.4,7.2-10.6,13.6-9.5l1.2-6.6c-6.4-1.1-10.6-7.2-9.5-13.6c1.1-6.4,7.2-10.6,13.6-9.5l1.2-6.6c-6.4-1.1-10.6-7.2-9.5-13.6
			c1.1-6.4,7.2-10.6,13.6-9.5l2.3-13.2c-25.5-4.5-42.5-28.8-38-54.3L833.7,22.4c-4.5,25.5-28.8,42.5-54.3,38l-2.3,13.2
			c6.4,1.1,10.6,7.2,9.5,13.6c-1.1,6.4-7.2,10.6-13.6,9.5l-1.2,6.6c6.4,1.1,10.6,7.2,9.5,13.6c-1.1,6.4-7.2,10.6-13.6,9.5l-1.2,6.6
			c6.4,1.1,10.6,7.2,9.5,13.6c-1.1,6.4-7.2,10.6-13.6,9.5l-1.2,6.6c6.4,1.1,10.6,7.2,9.5,13.6c-1.1,6.4-7.2,10.6-13.6,9.5l-1.2,6.6
			c6.4,1.1,10.6,7.2,9.5,13.6c-1.1,6.4-7.2,10.6-13.6,9.5l-1.2,6.6c6.4,1.1,10.6,7.2,9.5,13.6c-1.1,6.4-7.2,10.6-13.6,9.5l-1.2,6.6
			c6.4,1.1,10.6,7.2,9.5,13.6c-1.1,6.4-7.2,10.6-13.6,9.5l-1.2,6.6c6.4,1.1,10.6,7.2,9.5,13.6c-1.1,6.4-7.2,10.6-13.6,9.5l-1.2,6.6
			c6.4,1.1,10.6,7.2,9.5,13.6c-1.1,6.4-7.2,10.6-13.6,9.5l-1.2,6.6c6.4,1.1,10.6,7.2,9.5,13.6c-1.1,6.4-7.2,10.6-13.6,9.5l-2.3,13.2
			c25.5,4.5,42.5,28.8,38,54.3l168.6,29.7c4.5-25.5,28.8-42.5,54.3-38l2.3-13.2C979.9,408.9,975.6,402.8,976.7,396.4z" />
		</g>
	</g>
	<path id="XMLID_288_" class="st3" d="M976.7,396.4c1.1-6.4,7.2-10.6,13.6-9.5l1.2-6.6c-6.4-1.1-10.6-7.2-9.5-13.6
	c1.1-6.4,7.2-10.6,13.6-9.5l1.2-6.6c-6.4-1.1-10.6-7.2-9.5-13.6c1.1-6.4,7.2-10.6,13.6-9.5l1.2-6.6c-6.4-1.1-10.6-7.2-9.5-13.6
	c1.1-6.4,7.2-10.6,13.6-9.5l1.2-6.6c-6.4-1.1-10.6-7.2-9.5-13.6c1.1-6.4,7.2-10.6,13.6-9.5l1.2-6.6c-6.4-1.1-10.6-7.2-9.5-13.6
	c1.1-6.4,7.2-10.6,13.6-9.5l1.2-6.6c-6.4-1.1-10.6-7.2-9.5-13.6c1.1-6.4,7.2-10.6,13.6-9.5l1.2-6.6c-6.4-1.1-10.6-7.2-9.5-13.6
	c1.1-6.4,7.2-10.6,13.6-9.5l1.2-6.6c-6.4-1.1-10.6-7.2-9.5-13.6c1.1-6.4,7.2-10.6,13.6-9.5l1.2-6.6c-6.4-1.1-10.6-7.2-9.5-13.6
	c1.1-6.4,7.2-10.6,13.6-9.5l2.3-13.2c-25.5-4.5-42.5-28.8-38-54.3L833.7,22.4c-4.5,25.5-28.8,42.5-54.3,38l-2.3,13.2
	c6.4,1.1,10.6,7.2,9.5,13.6c-1.1,6.4-7.2,10.6-13.6,9.5l-1.2,6.6c6.4,1.1,10.6,7.2,9.5,13.6c-1.1,6.4-7.2,10.6-13.6,9.5l-1.2,6.6
	c6.4,1.1,10.6,7.2,9.5,13.6c-1.1,6.4-7.2,10.6-13.6,9.5l-1.2,6.6c6.4,1.1,10.6,7.2,9.5,13.6c-1.1,6.4-7.2,10.6-13.6,9.5l-1.2,6.6
	c6.4,1.1,10.6,7.2,9.5,13.6c-1.1,6.4-7.2,10.6-13.6,9.5l-1.2,6.6c6.4,1.1,10.6,7.2,9.5,13.6c-1.1,6.4-7.2,10.6-13.6,9.5l-1.2,6.6
	c6.4,1.1,10.6,7.2,9.5,13.6c-1.1,6.4-7.2,10.6-13.6,9.5l-1.2,6.6c6.4,1.1,10.6,7.2,9.5,13.6c-1.1,6.4-7.2,10.6-13.6,9.5l-1.2,6.6
	c6.4,1.1,10.6,7.2,9.5,13.6c-1.1,6.4-7.2,10.6-13.6,9.5l-1.2,6.6c6.4,1.1,10.6,7.2,9.5,13.6c-1.1,6.4-7.2,10.6-13.6,9.5l-2.3,13.2
	c25.5,4.5,42.5,28.8,38,54.3l168.6,29.7c4.5-25.5,28.8-42.5,54.3-38l2.3-13.2C979.9,408.9,975.6,402.8,976.7,396.4z" />
	<g id="XMLID_213_">
		<g id="XMLID_285_">
			<g>
				<defs>
					<path id="SVGID_9_" d="M893.3,170.6c29.1,5.1,48.6,32.9,43.5,62s-32.9,48.5-62.1,43.4c-29.1-5.1-48.6-32.9-43.5-62
					S864.1,165.4,893.3,170.6L893.3,170.6z" />
				</defs>
				<use xlink:href="#SVGID_9_" style="overflow:visible;fill:#DB283E;" />
				<clipPath id="SVGID_10_">
					<use xlink:href="#SVGID_9_" style="overflow:visible;" />
				</clipPath>
				<g transform="matrix(1 0 0 1 0 6.103516e-05)" class="st17">
				</g>
				<use xlink:href="#SVGID_9_" style="overflow:visible;fill:none;stroke:#000000;stroke-miterlimit:10;" />
			</g>
		</g>
		<g id="XMLID_275_">
			<g>
				<defs>
					<path id="SVGID_11_"
						d="M871.9,277.4c-31.2-5.5-52.1-35.3-46.6-66.4c5.5-31.1,35.3-52,66.5-46.5s52.1,35.3,46.6,66.4
					C932.9,262,903,282.9,871.9,277.4L871.9,277.4z M928.1,237c-1.6-0.8-14.2-7.1-29.7-7.4c3.3,18.4,3.3,33,3.3,36
					C913.9,260.3,923.6,250.1,928.1,237L928.1,237z M892.9,268.7c0-4.4-0.2-19.6-3.9-38.4c-0.1,0-0.2,0-0.3,0.1
					c-28.9,4.7-42,21.8-43.2,23.4c7.1,7.8,16.7,13.4,27.8,15.4C880,270.4,886.6,270.1,892.9,268.7L892.9,268.7z M840.2,246.9
					c1.4-1.7,18.5-21.3,44.9-24.9c0.7-0.1,1.3-0.2,2-0.2c-0.7-3-1.6-5.9-2.5-8.9c-25.4,3-48.7-1.5-50.8-1.9c-0.1,0.5-0.2,1-0.3,1.5
					C831.3,224.8,834,237,840.2,246.9L840.2,246.9z M836.3,202.7c2.2,0.4,22,4,45.7,2c-5.5-15.6-12-29.1-13-31.1
					C854.3,177.7,842.1,188.3,836.3,202.7L836.3,202.7z M878.8,172.1c1,2,7.7,15.5,13,31.4c18.3-3.4,27.3-11.9,28.4-13
					c-7.2-9.1-17.6-15.6-29.9-17.8C886.4,172,882.6,171.8,878.8,172.1L878.8,172.1z M924.6,197.1c-1.3,1.2-11.2,10.1-30.3,14.3
					c0.7,2.5,1.4,5,2,7.6c0.2,0.9,0.4,1.8,0.6,2.7c16.4,0.8,31.8,6.9,33.4,7.5C932.1,217.6,929.9,206.4,924.6,197.1L924.6,197.1z" />
				</defs>
				<use xlink:href="#SVGID_11_" style="overflow:visible;fill:#DB283E;" />
				<clipPath id="SVGID_12_">
					<use xlink:href="#SVGID_11_" style="overflow:visible;" />
				</clipPath>
				<g transform="matrix(1 0 0 1 0 6.103516e-05)" class="st18">
				</g>
				<use xlink:href="#SVGID_11_" style="overflow:visible;fill:none;stroke:#000000;stroke-miterlimit:10;" />
			</g>
		</g>
		<g id="XMLID_257_">
			<g>
				<defs>
					<path id="SVGID_13_" d="M871.9,277.4l0.1-0.3c-15.5-2.7-28.5-11.5-36.9-23.5s-12.2-27.1-9.5-42.6l0,0
					c2.7-15.5,11.5-28.4,23.5-36.8c12-8.4,27.2-12.2,42.7-9.5s28.5,11.5,36.9,23.5s12.2,27.1,9.5,42.6s-11.5,28.4-23.5,36.8
					c-12,8.4-27.2,12.2-42.7,9.5L871.9,277.4l-0.1,0.3c31.3,5.5,61.3-15.4,66.8-46.7s-15.5-61.2-46.8-66.8
					c-31.3-5.5-61.3,15.4-66.8,46.7l0,0c-5.5,31.3,15.5,61.2,46.8,66.8L871.9,277.4L871.9,277.4L871.9,277.4z M928.2,237.1l0.1-0.3
					c-1.2-0.6-9-4.5-19.6-6.3c-3.2-0.6-6.6-0.9-10.2-1h-0.4l0.1,0.3c3.3,18.2,3.3,32.6,3.3,35.6v0.5l0.4-0.2
					c12.2-5.3,22-15.5,26.6-28.5l0.1-0.2l-0.2-0.1L928.2,237.1l-0.3-0.1c-4.5,12.9-14.2,22.8-26.2,28.2l0.1,0.3h0.3
					c0-3-0.1-17.4-3.3-35.7l-0.3,0.1v0.3c3.6,0.1,7,0.4,10.1,1c10.5,1.9,18.3,5.6,19.4,6.2L928.2,237.1l-0.3-0.1L928.2,237.1
					L928.2,237.1L928.2,237.1z M893.2,268.5h0.3c0-4.4-0.2-19.8-3.7-38.7l-0.1-0.3h-0.3c-0.1,0-0.2,0-0.3,0.1
					c-27.6,4.7-40.2,22.1-41.3,23.8l-0.1,0.2l0.2,0.2c6.8,8,16,13.6,26.7,15.6c6.4,1.2,12.8,0.9,18.8-0.5l0.2-0.1v-0.2L893.2,268.5
					l-0.1-0.3c-5.9,1.4-12.2,1.7-18.5,0.5c-10.6-2-19.7-7.6-26.4-15.4l-0.2,0.2l0.2,0.2c1.1-1.6,13.5-18.8,41-23.5
					c0.1,0,0.2,0,0.3-0.1v-0.3l-0.3,0.1c3.5,18.9,3.7,34.3,3.6,38.6L893.2,268.5l-0.1-0.3L893.2,268.5L893.2,268.5L893.2,268.5z
					 M840.2,246.9l0.2,0.2c1.4-1.7,18.5-21.2,44.7-24.8c0.7-0.1,1.3-0.2,2-0.8h0.3l-0.1,0.3c-0.7-3-1.6-5.9-2.5-8.9l-0.1-0.4h-0.2
					c-22.4,2.8-43.3-0.4-49.2-1.4c-0.8-0.1-1.3-0.2-1.5-0.3l-0.3-0.1l-0.1,0.3c-0.1,0.5-0.2,1-0.3,1.5c-2.2,12.5,0.5,24.7,6.8,34.6
					l0.2,0.3l0.3-0.3L840.2,246.9l0.2-0.2c-6.2-9.9-8.9-21.9-6.7-34.2c0.1-0.5,0.2-1,0.3-1.5l-0.3-0.1l-0.1,0.3
					c0.2,0,0.8,0.1,1.5,0.3c6,1.1,26.9,4.2,49.4,1.6v-0.3l-0.3,0.1c0.9,2.9,1.7,5.9,2.5,8.9l0.8-0.1v-0.3c-1.2,0.1-1.8,0.1-2.5,0.2
					c-26.5,3.7-43.6,23.3-45,25L840.2,246.9l0.2-0.2L840.2,246.9L840.2,246.9L840.2,246.9z M836.8,203.2l-0.1,0.3
					c0.2,0,0.4,0.1,0.8,0.2c4.5,0.8,23.1,3.7,44.9,1.8h0.4l-0.1-0.4c-5.5-15.6-12-29.1-13-31.1l-0.1-0.2l-0.2,0.1
					c-14.7,4-27.1,14.7-32.9,29.2l-0.1,0.3l0.3,0.1L836.8,203.2l0.3,0.1c5.7-14.3,18-24.9,32.5-28.9l-0.1-0.3l-0.3,0.1
					c1,2,7.5,15.4,13,31l0.3-0.1v-0.3c-21.8,1.8-40.3-1.1-44.8-1.8c-0.4-0.1-0.7-0.1-0.8-0.1L836.8,203.2l0.3,0.1L836.8,203.2
					L836.8,203.2L836.8,203.2z M878.5,171.8l-0.3,0.1c1,2,7.7,15.5,13,31.4l0.1,0.2h0.2c18.4-3.4,27.4-11.9,28.5-13l0.2-0.2
					l-0.2-0.2c-7.2-9.1-17.7-15.7-30-17.9c-3.9-0.7-7.8-0.9-11.6-0.7H878l0.2,0.4L878.5,171.8v0.3c3.8-0.2,7.6,0,11.5,0.7
					c12.2,2.2,22.5,8.7,29.7,17.7l0.2-0.2l-0.2-0.2c-1.1,1.1-10,9.5-28.2,12.9l0.1,0.3l0.3-0.1c-5.4-15.9-12-29.4-13.1-31.5
					L878.5,171.8v0.3V171.8L878.5,171.8L878.5,171.8z M924.6,197.1l-0.2-0.2c-1.2,1.2-11.1,10.1-30.2,14.2l-0.3,0.1l0.1,0.3
					c0.7,2.5,1.4,5,2,7.5c0.2,0.9,0.4,1.8,0.5,2.7v-0.2h0.3c3.8,0.6,7.6,1.1,11.2,1.7c11.6,2,20.9,5.7,22.1,6.2l0.3,0.1l0.1-0.4
					c1.9-11.5-0.3-22.7-5.6-32.2l-0.2-0.3l-0.3,0.3L924.6,197.1l-0.3,0.1c5.2,9.3,7.5,20.4,5.6,31.3h0.3l0.1,0.2
					c-1.2-0.5-10.5-4.1-22.2-6.2c-3.6-0.6-7.4-1.1-10.6-1.3v0.3l-0.4-0.1c-0.2-0.9-0.4-1.8-0.6-2.7c-0.6-2.5-1.3-5.1-2-7.6l-0.3,0.1
					l0.1,0.3c19.2-4.1,29.2-13.1,30.5-14.3L924.6,197.1l-0.3,0.1L924.6,197.1L924.6,197.1L924.6,197.1z" />
				</defs>
				<use xlink:href="#SVGID_13_" style="overflow:visible;fill:#DB283E;" />
				<clipPath id="SVGID_14_">
					<use xlink:href="#SVGID_13_" style="overflow:visible;" />
				</clipPath>
				<use xlink:href="#SVGID_13_" style="overflow:visible;fill:none;stroke:#000000;stroke-miterlimit:10;" />
			</g>
			<g>
				<defs>
					<path id="SVGID_15_" d="M871.9,277.4l0.1-0.3c-15.5-2.7-28.5-11.5-36.9-23.5s-12.2-27.1-9.5-42.6l0,0
					c2.7-15.5,11.5-28.4,23.5-36.8c12-8.4,27.2-12.2,42.7-9.5s28.5,11.5,36.9,23.5s12.2,27.1,9.5,42.6s-11.5,28.4-23.5,36.8
					c-12,8.4-27.2,12.2-42.7,9.5L871.9,277.4l-0.1,0.3c31.3,5.5,61.3-15.4,66.8-46.7s-15.5-61.2-46.8-66.8
					c-31.3-5.5-61.3,15.4-66.8,46.7l0,0c-5.5,31.3,15.5,61.2,46.8,66.8L871.9,277.4L871.9,277.4L871.9,277.4z M928.2,237.1l0.1-0.3
					c-1.2-0.6-9-4.5-19.6-6.3c-3.2-0.6-6.6-0.9-10.2-1h-0.4l0.1,0.3c3.3,18.2,3.3,32.6,3.3,35.6v0.5l0.4-0.2
					c12.2-5.3,22-15.5,26.6-28.5l0.1-0.2l-0.2-0.1L928.2,237.1l-0.3-0.1c-4.5,12.9-14.2,22.8-26.2,28.2l0.1,0.3h0.3
					c0-3-0.1-17.4-3.3-35.7l-0.3,0.1v0.3c3.6,0.1,7,0.4,10.1,1c10.5,1.9,18.3,5.6,19.4,6.2L928.2,237.1l-0.3-0.1L928.2,237.1
					L928.2,237.1L928.2,237.1z M893.2,268.5h0.3c0-4.4-0.2-19.8-3.7-38.7l-0.1-0.3h-0.3c-0.1,0-0.2,0-0.3,0.1
					c-27.6,4.7-40.2,22.1-41.3,23.8l-0.1,0.2l0.2,0.2c6.8,8,16,13.6,26.7,15.6c6.4,1.2,12.8,0.9,18.8-0.5l0.2-0.1v-0.2L893.2,268.5
					l-0.1-0.3c-5.9,1.4-12.2,1.7-18.5,0.5c-10.6-2-19.7-7.6-26.4-15.4l-0.2,0.2l0.2,0.2c1.1-1.6,13.5-18.8,41-23.5
					c0.1,0,0.2,0,0.3-0.1v-0.3l-0.3,0.1c3.5,18.9,3.7,34.3,3.6,38.6L893.2,268.5l-0.1-0.3L893.2,268.5L893.2,268.5L893.2,268.5z
					 M840.2,246.9l0.2,0.2c1.4-1.7,18.5-21.2,44.7-24.8c0.7-0.1,1.3-0.2,2-0.8h0.3l-0.1,0.3c-0.7-3-1.6-5.9-2.5-8.9l-0.1-0.4h-0.2
					c-22.4,2.8-43.3-0.4-49.2-1.4c-0.8-0.1-1.3-0.2-1.5-0.3l-0.3-0.1l-0.1,0.3c-0.1,0.5-0.2,1-0.3,1.5c-2.2,12.5,0.5,24.7,6.8,34.6
					l0.2,0.3l0.3-0.3L840.2,246.9l0.2-0.2c-6.2-9.9-8.9-21.9-6.7-34.2c0.1-0.5,0.2-1,0.3-1.5l-0.3-0.1l-0.1,0.3
					c0.2,0,0.8,0.1,1.5,0.3c6,1.1,26.9,4.2,49.4,1.6v-0.3l-0.3,0.1c0.9,2.9,1.7,5.9,2.5,8.9l0.8-0.1v-0.3c-1.2,0.1-1.8,0.1-2.5,0.2
					c-26.5,3.7-43.6,23.3-45,25L840.2,246.9l0.2-0.2L840.2,246.9L840.2,246.9L840.2,246.9z M836.8,203.2l-0.1,0.3
					c0.2,0,0.4,0.1,0.8,0.2c4.5,0.8,23.1,3.7,44.9,1.8h0.4l-0.1-0.4c-5.5-15.6-12-29.1-13-31.1l-0.1-0.2l-0.2,0.1
					c-14.7,4-27.1,14.7-32.9,29.2l-0.1,0.3l0.3,0.1L836.8,203.2l0.3,0.1c5.7-14.3,18-24.9,32.5-28.9l-0.1-0.3l-0.3,0.1
					c1,2,7.5,15.4,13,31l0.3-0.1v-0.3c-21.8,1.8-40.3-1.1-44.8-1.8c-0.4-0.1-0.7-0.1-0.8-0.1L836.8,203.2l0.3,0.1L836.8,203.2
					L836.8,203.2L836.8,203.2z M878.5,171.8l-0.3,0.1c1,2,7.7,15.5,13,31.4l0.1,0.2h0.2c18.4-3.4,27.4-11.9,28.5-13l0.2-0.2
					l-0.2-0.2c-7.2-9.1-17.7-15.7-30-17.9c-3.9-0.7-7.8-0.9-11.6-0.7H878l0.2,0.4L878.5,171.8v0.3c3.8-0.2,7.6,0,11.5,0.7
					c12.2,2.2,22.5,8.7,29.7,17.7l0.2-0.2l-0.2-0.2c-1.1,1.1-10,9.5-28.2,12.9l0.1,0.3l0.3-0.1c-5.4-15.9-12-29.4-13.1-31.5
					L878.5,171.8v0.3V171.8L878.5,171.8L878.5,171.8z M924.6,197.1l-0.2-0.2c-1.2,1.2-11.1,10.1-30.2,14.2l-0.3,0.1l0.1,0.3
					c0.7,2.5,1.4,5,2,7.5c0.2,0.9,0.4,1.8,0.5,2.7v-0.2h0.3c3.8,0.6,7.6,1.1,11.2,1.7c11.6,2,20.9,5.7,22.1,6.2l0.3,0.1l0.1-0.4
					c1.9-11.5-0.3-22.7-5.6-32.2l-0.2-0.3l-0.3,0.3L924.6,197.1l-0.3,0.1c5.2,9.3,7.5,20.4,5.6,31.3h0.3l0.1,0.2
					c-1.2-0.5-10.5-4.1-22.2-6.2c-3.6-0.6-7.4-1.1-10.6-1.3v0.3l-0.4-0.1c-0.2-0.9-0.4-1.8-0.6-2.7c-0.6-2.5-1.3-5.1-2-7.6l-0.3,0.1
					l0.1,0.3c19.2-4.1,29.2-13.1,30.5-14.3L924.6,197.1l-0.3,0.1L924.6,197.1L924.6,197.1L924.6,197.1z" />
				</defs>
				<use xlink:href="#SVGID_15_" style="overflow:visible;fill:#DB283E;" />
				<clipPath id="SVGID_16_">
					<use xlink:href="#SVGID_15_" style="overflow:visible;" />
				</clipPath>
				<g transform="matrix(1 0 0 1 0 6.103516e-05)" class="st19">
				</g>
				<use xlink:href="#SVGID_15_" style="overflow:visible;fill:none;stroke:#000000;stroke-miterlimit:10;" />
			</g>
		</g>
	</g>
	<g id="XMLID_49_">
		<g id="XMLID_205_">
			<line id="XMLID_210_" class="st9" x1="911.8" y1="343.5" x2="907.1" y2="370.1" />
		</g>
		<g id="XMLID_195_">
			<line id="XMLID_196_" class="st10" x1="918.9" y1="344.8" x2="914.3" y2="371.3" />
		</g>
		<g id="XMLID_193_">
			<line id="XMLID_194_" class="st10" x1="905.4" y1="342.4" x2="900.7" y2="369" />
		</g>
		<g id="XMLID_186_">
			<line id="XMLID_188_" class="st10" x1="900.7" y1="341.6" x2="896" y2="368.1" />
		</g>
		<g id="XMLID_163_">
			<line id="XMLID_165_" class="st11" x1="894.1" y1="340.4" x2="889.4" y2="367" />
		</g>
		<g id="XMLID_141_">
			<line id="XMLID_142_" class="st12" x1="887.3" y1="339.2" x2="882.6" y2="365.8" />
		</g>
		<g id="XMLID_99_">
			<line id="XMLID_140_" class="st10" x1="879.4" y1="337.8" x2="874.8" y2="364.4" />
		</g>
		<g id="XMLID_66_">
			<line id="XMLID_84_" class="st13" x1="871.6" y1="336.4" x2="866.9" y2="363" />
		</g>
		<g id="XMLID_64_">
			<line id="XMLID_65_" class="st12" x1="863.8" y1="335" x2="859.1" y2="361.6" />
		</g>
		<g id="XMLID_62_">
			<line id="XMLID_63_" class="st9" x1="855.9" y1="333.7" x2="851.3" y2="360.2" />
		</g>
		<g id="XMLID_60_">
			<line id="XMLID_61_" class="st10" x1="848.1" y1="332.3" x2="843.4" y2="358.9" />
		</g>
		<g id="XMLID_58_">
			<line id="XMLID_59_" class="st11" x1="840.3" y1="330.9" x2="835.6" y2="357.5" />
		</g>
		<g id="XMLID_56_">
			<line id="XMLID_57_" class="st12" x1="832.4" y1="329.5" x2="827.7" y2="356.1" />
		</g>
		<g id="XMLID_54_">
			<line id="XMLID_55_" class="st10" x1="824.6" y1="328.1" x2="819.9" y2="354.7" />
		</g>
		<g id="XMLID_52_">
			<line id="XMLID_53_" class="st12" x1="816.8" y1="326.7" x2="812.1" y2="353.3" />
		</g>
		<g id="XMLID_50_">
			<line id="XMLID_51_" class="st9" x1="808.9" y1="325.4" x2="804.2" y2="351.9" />
		</g>
	</g>
	<g id="XMLID_11_">
		<path id="XMLID_47_" class="st0" d="M829.7,101.1l0.5-3l1.5,0.3l1.4-8.2l-1.5-0.3l0.5-3l6.3,1.1l-0.5,3l-1.5-0.3l-1.4,8.2l1.5,0.3
		l-0.5,3L829.7,101.1z" />
		<path id="XMLID_45_" class="st0" d="M852.9,105.1l0.5-3l0.8,0.1c0.3,0.1,0.5-0.1,0.5-0.4l1.9-10.7l3.2,0.6l2.8,6.7
		c0.2,0.6,0.5,1.5,0.7,2l0.1,0.4l0,0c0-0.8,0.1-1.5,0.2-2.1l0.8-4.6c0.2-1,0.7-1.4,1.7-1.2l3.4,0.6l-0.5,3l-0.8-0.1
		c-0.3-0.1-0.5,0.1-0.5,0.4l-1.9,10.7l-3.2-0.6l-2.9-6.7c-0.2-0.6-0.6-1.5-0.7-2l-0.1-0.4l0,0c0,0.8-0.1,1.5-0.2,2.1l-0.8,4.6
		c-0.2,1-0.7,1.4-1.7,1.2L852.9,105.1z" />
		<path id="XMLID_43_" class="st0" d="M888.5,111.4l-2-11.4c-0.1-0.4-0.1-0.5-0.5-0.5l-0.5-0.1l0.5-3l2.5,0.4c1,0.2,1.3,0.5,1.5,1.4
		l0.9,7c0.1,0.6,0.1,1.5,0.1,2v0.4l0,0c0.3-0.9,0.6-1.6,0.9-2.2l3.3-6.2c0.4-0.8,0.9-1,1.9-0.9l2.5,0.4l-0.5,3l-0.5-0.1
		c-0.3-0.1-0.4,0-0.6,0.3l-5.8,10L888.5,111.4z" />
		<path id="XMLID_39_" class="st0" d="M913.7,115.9l0.5-3l1.5,0.3l1.4-8.2l-1.5-0.3l0.5-3l6.3,1.1l-0.5,3l-1.5-0.3l-1.4,8.2l1.5,0.3
		l-0.5,3L913.7,115.9z" />
		<path id="XMLID_37_" class="st0" d="M941.3,120.7l2-11.1l-1.1-0.2c-0.3-0.1-0.5,0.1-0.5,0.4l-0.1,0.8l-3.1-0.5l0.5-2.8
		c0.2-1,0.6-1.3,1.6-1.1l10.1,1.8c1,0.2,1.3,0.6,1.1,1.6l-0.5,2.8l-3.1-0.5l0.1-0.8c0.1-0.3-0.1-0.5-0.4-0.5l-1.1-0.2l-2,11.1
		L941.3,120.7z" />
		<path id="XMLID_35_" class="st0" d="M969.3,114.2L968,114l0.5-3l8.9,1.6c1,0.2,1.4,0.7,1.2,1.7l-0.5,2.7l-3.2-0.6l0.1-0.8
		c0.1-0.3-0.1-0.5-0.4-0.5l-1.9-0.3l-0.5,2.6l4,0.7l-0.5,3l-4-0.7l-0.4,2.2c-0.1,0.3,0.1,0.5,0.4,0.5l2,0.3c0.3,0.1,0.5-0.1,0.5-0.4
		l0.1-0.8l3.2,0.6l-0.5,2.7c-0.2,1-0.7,1.4-1.7,1.2l-6.6-1.2c-1-0.2-1.4-0.7-1.2-1.7L969.3,114.2z" />
	</g>
	<g>
		<path
			d="M779.5,382.3l0.2-1l1.4-1c3.4-2.3,5-3.5,5.4-5.3c0.2-1.2-0.2-2.4-1.9-2.7c-1-0.2-2,0.2-2.6,0.5l-0.3-1.2
		c0.9-0.5,2.1-0.8,3.5-0.6c2.5,0.4,3.2,2.3,2.9,4c-0.4,2.1-2.2,3.6-5.1,5.5l-1.1,0.7l0,0l5.2,0.9l-0.2,1.3L779.5,382.3z" />
		<path d="M811.4,377.4l-4.4-0.8l-1,2.9c0.3,0,0.5,0,1,0.1c0.9,0.2,1.7,0.5,2.4,1.1c0.8,0.7,1.4,1.8,1.1,3.3c-0.4,2.3-2.5,3.6-5,3.2
		c-1.3-0.2-2.3-0.8-2.7-1.2l0.6-1.1c0.4,0.4,1.3,0.9,2.4,1.1c1.5,0.3,2.9-0.5,3.2-2c0.2-1.5-0.6-2.7-2.9-3.1
		c-0.7-0.1-1.2-0.1-1.6-0.2l1.7-5.4l5.5,1L811.4,377.4z" />
		<path d="M831.2,381.1L831.2,381.1l-2.2,0.7l-0.1-1.2l2.8-0.9l1.3,0.2l-2,11.5l-1.5-0.3L831.2,381.1z" />
		<path
			d="M858,390.1c-0.7,3.9-2.5,5.8-5.1,5.4c-2.3-0.4-3.4-2.8-2.8-6.6c0.7-3.9,2.7-5.7,5.1-5.3C857.6,384,858.6,386.4,858,390.1z
		 M851.7,389.2c-0.5,3,0.1,4.9,1.5,5.1c1.6,0.3,2.7-1.4,3.2-4.4c0.5-2.8,0.1-4.8-1.5-5.1C853.5,384.6,852.2,386,851.7,389.2z" />
		<path d="M877.7,389.3L877.7,389.3l-2.2,0.7l-0.1-1.2l2.8-0.9l1.3,0.2l-2,11.5l-1.5-0.3L877.7,389.3z" />
		<path d="M904.2,393.7c-0.3-0.1-0.7-0.1-1.2-0.1c-2.5,0-4.1,1.5-4.7,3.4h0.1c0.7-0.6,1.7-1.1,3-0.8c2,0.4,3.2,2.1,2.8,4.3
		c-0.4,2.1-2.2,3.8-4.5,3.4c-2.5-0.4-3.7-2.6-3.2-5.6c0.4-2.3,1.5-3.9,2.9-4.9c1.1-0.8,2.5-1.1,4-1.1c0.5,0,0.9,0.1,1.2,0.1
		L904.2,393.7z M902.6,400.2c0.3-1.6-0.5-2.8-1.9-3.1c-0.9-0.2-1.9,0.3-2.5,1c-0.1,0.2-0.2,0.4-0.3,0.7c-0.3,1.9,0.3,3.5,2,3.7
		C901.2,402.8,902.3,401.8,902.6,400.2z" />
		<path d="M921.7,395.3c0.7,0,1.8,0.1,2.9,0.2c1.5,0.3,2.5,0.7,3.1,1.4c0.5,0.6,0.8,1.3,0.6,2.3c-0.2,1.2-1.1,2-2.5,2.3l0,0
		c1.1,0.5,2.2,1.7,1.9,3.4c-0.2,1-0.7,1.7-1.4,2.2c-1,0.6-2.4,0.7-4.3,0.4c-1.1-0.2-1.9-0.4-2.4-0.6L921.7,395.3z M921.3,406.1
		c0.3,0.1,0.7,0.2,1.3,0.3c1.6,0.3,3.2,0,3.5-1.8c0.3-1.6-1-2.6-2.7-2.8l-1.3-0.2L921.3,406.1z M922.3,400.4l1.4,0.2
		c1.6,0.3,2.7-0.4,2.9-1.5c0.2-1.4-0.7-2.1-2.3-2.4c-0.7-0.1-1.1-0.1-1.4-0.1L922.3,400.4z" />
	</g>
	<text transform="matrix(1 0 0 1 148.7001 194.967)">
		<tspan x="0" y="0" class="st20 st21 st22">Mobile</tspan>
		<tspan x="0" y="65.2" class="st20 st21 st22">Tickets</tspan>
	</text>
</svg>